# xmcd
#
# Track frame offsets: 
#        150
#        18545
#        35599
#        51498
#        64753
#        80454
#        94096
#        120690
#        140821
#
# Disc length: 2267 seconds
#
# Revision: 0
# Processed by: cddbd v1.5.2PL0 Copyright (c) Steve Scherf et al.
# Submitted via: ExactAudioCopy v0.95b4
#
DISCID=8008d909
DTITLE=Goya - The Holy Game of Poker
DYEAR=2007
DGENRE=Crossover
TTITLE0=The Holy Game of Poker
TTITLE1=Saturnus
TTITLE2=Running Over Water
TTITLE3=Walk Feet, Walk!
TTITLE4=Ik Help Niet
TTITLE5=The Road to Israël
TTITLE6=Jacky Francis
TTITLE7=Double Trouble
TTITLE8=Brasil Jacky (Take One)
EXTD=
EXTT0=
EXTT1=
EXTT2=
EXTT3=
EXTT4=
EXTT5=
EXTT6=
EXTT7=
EXTT8=
PLAYORDER=
